HIERARCHY
ROOT root
{
	OFFSET	0	13.1	24.9
	CHANNELS 6  Xposition Yposition Zposition Xrotation Yrotation Zrotation
	JOINT spine_1
	{
		OFFSET	0	9.99999	0
		CHANNELS 3  Xrotation Yrotation Zrotation
		JOINT spine_2
		{
			OFFSET	0	112	-10
			CHANNELS 3  Xrotation Yrotation Zrotation
			JOINT spine_3
			{
				OFFSET	0	206.5	19.3
				CHANNELS 3  Xrotation Yrotation Zrotation
				JOINT spine_4
				{
					OFFSET	0	110.4	14.6
					CHANNELS 3  Xrotation Yrotation Zrotation
					JOINT neck_1
					{
						OFFSET	0	71.8	-50.3
						CHANNELS 3  Xrotation Yrotation Zrotation
						JOINT neck_2
						{
							OFFSET	0	86.2	-25.8
							CHANNELS 3  Xrotation Yrotation Zrotation
							JOINT head_ee
							{
								OFFSET	0	179.8	-8.7
								CHANNELS 3  Xrotation Yrotation Zrotation
								End Site
								{
									OFFSET	1	0	0
								}
							}
						}
					}
					JOINT left_clavicle
					{
						OFFSET	-43.2	22.4	-70.8
						CHANNELS 3  Xrotation Yrotation Zrotation
						JOINT left_shoulder
						{
							OFFSET	-93.9	-5.79999	48.7
							CHANNELS 3  Xrotation Yrotation Zrotation
							JOINT left_elbow
							{
								OFFSET	-291.4	-30.8	15.2
								CHANNELS 3  Xrotation Yrotation Zrotation
								JOINT left_lowarm_twist
								{
									OFFSET	-110.7	-3.89999	13.6
									CHANNELS 3  Xrotation Yrotation Zrotation
									JOINT left_hand
									{
										OFFSET	-110.7	-3.89999	13.6
										CHANNELS 3  Xrotation Yrotation Zrotation
										JOINT left_ee
										{
											OFFSET	-80.8	-5.10001	12.1
											CHANNELS 3  Xrotation Yrotation Zrotation
											End Site
											{
												OFFSET	1	0	0
											}
										}
									}
								}
							}
						}
					}
					JOINT right_clavicle
					{
						OFFSET	43.2	22.4	-70.8
						CHANNELS 3  Xrotation Yrotation Zrotation
						JOINT right_shoulder
						{
							OFFSET	93.9	-5.79999	48.7
							CHANNELS 3  Xrotation Yrotation Zrotation
							JOINT right_elbow
							{
								OFFSET	291.4	-30.8	15.2
								CHANNELS 3  Xrotation Yrotation Zrotation
								JOINT right_lowarm_twist
								{
									OFFSET	110.7	-3.89999	13.6
									CHANNELS 3  Xrotation Yrotation Zrotation
									JOINT right_hand
									{
										OFFSET	110.7	-3.89999	13.6
										CHANNELS 3  Xrotation Yrotation Zrotation
										JOINT right_ee
										{
											OFFSET	80.8	-5.10001	12.1
											CHANNELS 3  Xrotation Yrotation Zrotation
											End Site
											{
												OFFSET	1	0	0
											}
										}
									}
								}
							}
						}
					}
				}
			}
		}
	}
	JOINT left_hip
	{
		OFFSET	-82.8	-127.5	0.300001
		CHANNELS 3  Xrotation Yrotation Zrotation
		JOINT left_knee
		{
			OFFSET	-28.2	-396.7	2.2
			CHANNELS 3  Xrotation Yrotation Zrotation
			JOINT left_ankle
			{
				OFFSET	-11.7	-411.3	35.4
				CHANNELS 3  Xrotation Yrotation Zrotation
				JOINT left_toes
				{
					OFFSET	0	-60	-88.6
					CHANNELS 3  Xrotation Yrotation Zrotation
					JOINT left_foot_ee
					{
						OFFSET	-22.5	-16.5	-42.2
						CHANNELS 3  Xrotation Yrotation Zrotation
						End Site
						{
							OFFSET	1	0	0
						}
					}
				}
			}
		}
	}
	JOINT right_hip
	{
		OFFSET	82.8	-127.5	0.300001
		CHANNELS 3  Xrotation Yrotation Zrotation
		JOINT right_knee
		{
			OFFSET	28.2	-396.7	2.2
			CHANNELS 3  Xrotation Yrotation Zrotation
			JOINT right_ankle
			{
				OFFSET	11.7	-411.3	35.4
				CHANNELS 3  Xrotation Yrotation Zrotation
				JOINT right_toes
				{
					OFFSET	0	-60	-88.6
					CHANNELS 3  Xrotation Yrotation Zrotation
					JOINT right_foot_ee
					{
						OFFSET	22.5	-16.5	-42.2
						CHANNELS 3  Xrotation Yrotation Zrotation
						End Site
						{
							OFFSET	1	0	0
						}
					}
				}
			}
		}
	}
}
MOTION
Frames: 6
Frame Time: 0.02
1111.83762425 746.079 -1763.98193522 -11.2164608569 33.2119527458 10.215466533 3.79193 0.11502 -0.0682261 3.79192 0.119128 -0.0607688 3.7918 0.126683 -0.0428449 3.79182 0.118327 -0.0623145 -10.1828 16.1014 -1.4572 -10.5517 31.3315 2.83551 -0.0 0.0 -0.0 1.57448 15.6536 4.33529 -29.2949 -22.6289 65.7338 0.390762 -10.9556 0.0374734 17.716 0.280419 -2.23669 0.43833 12.2955 7.85476 -0.0 0.0 -0.0 11.1165 17.3462 -22.0844 -8.59284 18.3375 -61.7713 1.48406 36.3196 -0.486805 37.7113 0.235603 4.72577 -0.543318 -7.47222 0.416929 0.0 0.0 0.0 24.3501 5.4395 -9.75398 -51.1591 -1.32461 7.4827 28.4968 20.9929 -3.8505 6.49912 -0.0 -0.0 -0.0 0.0 -0.0 19.9288 2.88868 -8.41337 -14.0229 -0.318948 -2.12301 6.57493 20.1623 1.07283 11.9215 -0.0 -0.0 0.0 0.0 0.0 
1085.61790387 744.86 -1781.16960047 -10.0361136848 34.0073652915 9.2616073704 3.67534 0.139642 -0.161454 3.67535 0.149633 -0.152241 3.67495 0.170397 -0.128577 3.67495 0.147953 -0.153874 -10.7135 16.3243 -1.03308 -11.158 31.5227 3.47506 -0.0 0.0 -0.0 1.33278 16.4503 4.01532 -30.0242 -22.3529 66.6107 0.36543 -10.261 0.0328099 17.6355 0.280719 -2.22641 0.413768 13.5564 8.18124 -0.0 0.0 -0.0 11.3498 17.3207 -22.6148 -7.52145 18.8649 -61.1417 1.56749 37.8263 -0.537104 37.5953 0.230134 4.71199 -0.143789 -5.79511 -1.47924 0.0 0.0 0.0 28.2444 2.90371 -9.82531 -49.7319 -1.1989 7.30239 28.9376 20.0202 -3.88442 5.93945 -0.0 -0.0 -0.0 0.0 -0.0 17.0498 2.11204 -7.84529 -14.3009 -0.319984 -2.16563 7.58444 20.4376 1.23613 12.4827 -0.0 -0.0 0.0 0.0 0.0 
1085.80642436 744.86 -1781.34598571 -10.0319673834 33.9726107149 9.25419065297 3.67534 0.139642 -0.161454 3.67535 0.149633 -0.152241 3.67495 0.170397 -0.128577 3.67495 0.147953 -0.153874 -10.7135 16.3243 -1.03308 -11.158 31.5227 3.47506 -0.0 0.0 -0.0 1.33278 16.4503 4.01532 -30.0242 -22.3529 66.6107 0.36543 -10.261 0.0328099 17.6355 0.280719 -2.22641 0.413768 13.5564 8.18124 -0.0 0.0 -0.0 11.3498 17.3207 -22.6148 -7.52145 18.8649 -61.1417 1.56749 37.8263 -0.537104 37.5953 0.230134 4.71199 -0.143789 -5.79511 -1.47924 0.0 0.0 0.0 28.2444 2.90371 -9.82531 -49.7319 -1.1989 7.30239 28.9376 20.0202 -3.88442 5.93945 -0.0 -0.0 -0.0 0.0 -0.0 17.0498 2.11204 -7.84529 -14.3009 -0.319984 -2.16563 7.58444 20.4376 1.23613 12.4827 -0.0 -0.0 0.0 0.0 0.0 
1036.67310448 739.489 -1792.7708825 -10.1164514151 35.0703922265 9.24174574548 3.79006 0.382087 -0.189142 3.78999 0.393348 -0.164445 3.78889 0.413049 -0.105621 3.78909 0.391184 -0.16953 -10.9374 17.1807 -0.643042 -11.4637 32.9127 4.18639 -0.0 0.0 -0.0 0.583164 19.2854 3.1191 -33.9743 -23.3377 66.5003 0.493075 -13.7262 0.0593468 17.2082 0.28207 -2.17185 0.9615 12.7093 11.3627 -0.0 0.0 -0.0 11.5769 17.7303 -23.1093 -6.31094 18.5251 -60.0338 1.86228 42.6879 -0.727772 38.6998 0.28337 4.8428 -0.126186 -4.03359 -0.858034 0.0 0.0 0.0 33.256 0.555045 -10.495 -48.1319 -1.06339 7.09666 21.1192 22.1424 -2.97096 3.36897 -0.0 -0.0 -0.0 0.0 -0.0 10.6471 1.71315 -6.86283 -11.2016 -0.296732 -1.69074 13.0923 19.2904 2.06411 13.4722 -0.0 -0.0 0.0 0.0 0.0 
1010.51178174 734.762 -1796.39617621 -10.1650435373 33.7542861871 7.44929821263 3.85556 0.288112 0.20841 3.85554 0.274267 0.226321 3.85664 0.238836 0.26344 3.85665 0.277444 0.222414 -9.59918 17.8727 -0.244732 -9.9711 33.8082 4.32772 -0.0 0.0 -0.0 0.279455 22.1415 2.96258 -37.2083 -24.5708 66.2826 0.583424 -16.12 0.0826189 17.028 0.282518 -2.14884 0.886847 12.8777 10.9441 -0.0 0.0 -0.0 12.1096 19.9287 -24.1907 -5.89923 19.5774 -58.9604 2.05982 45.5724 -0.865363 38.6499 0.280909 4.83691 0.257295 -3.25966 -3.06966 0.0 0.0 0.0 34.3216 -2.68962 -8.56134 -47.4113 -1.00426 7.00281 14.583 20.5189 -2.09094 2.91466 -0.0 -0.0 -0.0 0.0 -0.0 8.75493 2.87988 -3.9449 -7.15435 -0.227771 -1.07364 15.1829 23.0599 2.45745 15.1655 -0.0 -0.0 0.0 0.0 0.0 
999.597531312 733.049 -1800.76849208 -10.6878381613 33.6709313894 8.28828936607 3.7976 0.172659 0.25593 3.79763 0.156023 0.266398 3.79834 0.115763 0.286199 3.79826 0.15951 0.264325 -12.3407 16.1598 -0.798246 -12.9731 31.2001 4.1544 -0.0 0.0 -0.0 0.394605 21.8591 3.09662 -36.9029 -24.3786 67.0925 0.556115 -15.4021 0.0752009 18.0643 0.278953 -2.28115 1.14263 11.3049 12.0237 -0.0 0.0 -0.0 12.3945 20.0638 -24.8373 -5.23651 20.0911 -58.0843 2.13677 46.6218 -0.920806 39.8144 0.339642 4.97375 0.128236 -3.18858 -2.18607 0.0 0.0 0.0 35.0107 0.738649 -10.835 -40.297 -0.485767 6.0398 7.35195 21.3489 -1.08323 0.579289 -0.0 -0.0 -0.0 0.0 -0.0 9.08154 2.05128 -4.19724 -6.17785 -0.204616 -0.925581 17.3249 23.9373 2.79957 15.1888 -0.0 -0.0 0.0 0.0 0.0 
